<?xml version="1.0" encoding="UTF-8" standalone="no"?>
<svg
   xmlns:dc="http://purl.org/dc/elements/1.1/"
   xmlns:cc="http://creativecommons.org/ns#"
   xmlns:rdf="http://www.w3.org/1999/02/22-rdf-syntax-ns#"
   xmlns:svg="http://www.w3.org/2000/svg"
   xmlns="http://www.w3.org/2000/svg"
   xmlns:sodipodi="http://sodipodi.sourceforge.net/DTD/sodipodi-0.dtd"
   xmlns:inkscape="http://www.inkscape.org/namespaces/inkscape"
   version="1.1"
   x="0px"
   y="0px"
   viewBox="0 0 71.532104 63.938091"
   enable-background="new 0 0 100 100"
   xml:space="preserve"
   id="svg10"
   sodipodi:docname="cropped-noun_bar chart_182087.svg"
   width="71.532104"
   height="63.938091"
   inkscape:version="1.0.1 (3bc2e813f5, 2020-09-07)"><metadata
     id="metadata16"><rdf:RDF><cc:Work
         rdf:about=""><dc:format>image/svg+xml</dc:format><dc:type
           rdf:resource="http://purl.org/dc/dcmitype/StillImage" /><dc:title></dc:title></cc:Work></rdf:RDF></metadata><defs
     id="defs14" /><sodipodi:namedview
     pagecolor="#ffffff"
     bordercolor="#666666"
     borderopacity="1"
     objecttolerance="10"
     gridtolerance="10"
     guidetolerance="10"
     inkscape:pageopacity="0"
     inkscape:pageshadow="2"
     inkscape:window-width="1920"
     inkscape:window-height="1017"
     id="namedview12"
     showgrid="false"
     inkscape:zoom="6.8"
     inkscape:cx="35.767108"
     inkscape:cy="44.469"
     inkscape:window-x="-8"
     inkscape:window-y="-8"
     inkscape:window-maximized="1"
     inkscape:current-layer="svg10" /><g
     id="g4"
     style="display:inline"
     transform="translate(-14.232892,-18.031)"><path
       fill="#000000"
       d="m 65.65,18.031 c -1.151,0.113 -2.135,1.217 -2.135,2.407 V 77.182 H 59.553 V 36.408 c 0,-1.246 -1.124,-2.379 -2.359,-2.379 H 42.668 c -1.18,0.113 -2.135,1.218 -2.135,2.379 V 77.182 H 36.572 V 52.405 c 0,-1.189 -0.983,-2.292 -2.135,-2.406 H 19.911 c -1.236,0 -2.388,1.132 -2.388,2.406 v 24.776 h -1.04 c -1.236,0.057 -2.304,1.246 -2.248,2.521 0.056,1.245 1.264,2.321 2.5,2.265 h 66.614 c 1.265,0.028 2.416,-1.133 2.416,-2.406 0,-1.274 -1.151,-2.407 -2.416,-2.379 H 82.562 V 20.438 c 0,-1.274 -1.151,-2.407 -2.388,-2.407 z m 2.642,4.785 h 9.496 V 77.182 H 68.292 Z M 45.281,38.814 h 9.524 v 38.367 h -9.524 z m -22.982,15.97 h 9.496 v 22.397 h -9.496 z"
       id="path2" /></g><text
     x="-14.232892"
     y="96.969002"
     fill="#000000"
     font-size="5px"
     font-weight="bold"
     font-family="'Helvetica Neue', Helvetica, Arial-Unicode, Arial, Sans-serif"
     id="text6"
     style="display:none">Created by romzicon</text><text
     x="-14.232892"
     y="101.969"
     fill="#000000"
     font-size="5px"
     font-weight="bold"
     font-family="'Helvetica Neue', Helvetica, Arial-Unicode, Arial, Sans-serif"
     id="text8"
     style="display:none">from the Noun Project</text></svg>
